<!-- Copyright © 2015 MODULUS Sp. z o. o. / FUTURAMO™ --><svg xmlns="http://www.w3.org/2000/svg" x="0px" y="0px" width="64px" height="64px" viewBox="0 0 32 32"><path  fill="#0A38F2" d="M22,8H10V6h12V8z M8,6H6v2h2V6z M0,28h12v-2H2V2h24v14h2V0H0V28z M6,12h2v-2H6V12z M10,12h12v-2H10V12z  M28,29v3H14v-3c0-2.805,1.654-5.218,4.037-6.335C17.399,21.956,17,21.028,17,20c0-2.209,1.791-4,4-4c2.209,0,4,1.791,4,4 c0,1.028-0.399,1.956-1.037,2.665C26.346,23.782,28,26.195,28,29z M23,20c0-1.103-0.897-2-2-2c-1.103,0-2,0.897-2,2 c0,1.103,0.897,2,2,2C22.103,22,23,21.103,23,20z"></path></svg>